<svg width="108" height="108" viewBox="0 0 108 108" fill="none" xmlns="http://www.w3.org/2000/svg">
<circle cx="54" cy="54" r="54" fill="#FFF7EC"/>
<path d="M71.6987 54.7918H54.2058V37.3008C54.2058 37.0856 54.0297 36.9095 53.8144 36.9095H52.5426C49.9758 36.9069 47.4337 37.4111 45.0623 38.3931C42.6908 39.3752 40.5367 40.8158 38.7234 42.6322C36.938 44.4118 35.5158 46.5216 34.536 48.8441C33.5185 51.2554 33 53.8135 33 56.4548C33 59.096 33.5185 61.6492 34.536 64.0606C35.5193 66.3839 36.9281 68.4773 38.7234 70.2724C40.5186 72.0675 42.6074 73.4761 44.9359 74.4592C47.3433 75.4805 49.9324 76.0045 52.5475 76C55.1143 76.0026 57.6563 75.4984 60.0277 74.5164C62.3992 73.5343 64.5534 72.0937 66.3667 70.2773C68.162 68.4822 69.5708 66.3937 70.554 64.0655C71.5754 61.6583 72.0995 59.0696 72.0949 56.4548V55.183C72.09 54.9678 71.9139 54.7918 71.6987 54.7918ZM75.9986 52.0771L75.8714 50.6978C75.4556 46.1979 73.4597 41.9524 70.241 38.7486C67.0252 35.5359 62.7875 33.548 58.261 33.1287L56.8767 33.0015C56.6468 32.9819 56.4511 33.158 56.4511 33.3879V52.1554C56.4511 52.3706 56.6272 52.5467 56.8424 52.5467L75.6072 52.4978C75.8371 52.4929 76.0181 52.3021 75.9986 52.0771Z" fill="#FAB140"/>
</svg>
