<svg width="100" height="31" viewBox="0 0 100 31" fill="none" xmlns="http://www.w3.org/2000/svg">
<g clip-path="url(#clip0)">
<path fill-rule="evenodd" clip-rule="evenodd" d="M87.114 14.2445L96.8711 0.0136719H90.2429L79.6898 14.3268L92.4797 29.9025H100L87.114 14.2445Z" fill="#4AB27C"/>
<path fill-rule="evenodd" clip-rule="evenodd" d="M54.3845 23.7133L53.7532 21.6L49.5402 9.44136L46.2192 0.0959473C47.7837 0.123393 49.1834 0.137116 50.4048 0.137116C51.1595 0.137116 52.326 0.123393 53.9316 0.0959473C54.1924 1.12518 54.3982 1.90739 54.5492 2.42887C54.755 3.11502 55.153 4.36382 55.7293 6.17527L58.2681 14.3542C58.5151 15.205 58.8308 16.3166 59.2013 17.6889L59.9972 15.6991L65.4453 3.80118L69.9739 9.41391L64.8415 19.5964C64.2651 20.7492 63.6201 22.1215 62.9065 23.6996C60.9716 23.6722 59.5855 23.6585 58.7484 23.6585C57.9936 23.6722 56.539 23.6859 54.3845 23.7133Z" fill="black"/>
<path fill-rule="evenodd" clip-rule="evenodd" d="M25.1544 23.7134C25.4426 20.7354 25.6484 18.2516 25.7857 16.2343C25.9092 14.2307 26.0464 11.5684 26.1836 8.23373C26.3209 4.91274 26.3895 2.70333 26.3895 1.61921L26.3758 0.0959473C29.0929 0.123393 32.3865 0.137116 36.2427 0.137116C39.7969 0.137116 42.9395 0.123393 45.6567 0.0959473L45.6155 0.672316C45.6018 0.809547 45.5743 1.30358 45.5332 2.18185L45.4234 4.06191C45.3959 4.45988 45.3822 4.87158 45.3822 5.28327C43.1591 5.18721 41.3065 5.14604 39.7832 5.14604C38.1227 5.14604 37.0111 5.14604 36.4211 5.15976C35.831 5.15976 34.939 5.18721 33.7039 5.2421L33.498 9.20807C34.8566 9.24924 36.4485 9.26296 38.2462 9.26296C38.8912 9.26296 40.6066 9.22179 43.3924 9.13945C43.2689 10.6078 43.1728 12.3781 43.063 14.4091C41.0732 14.3817 39.5362 14.3679 38.4658 14.3679C36.8739 14.3679 35.0899 14.4091 33.1275 14.4777L32.908 18.6907H34.8978C35.4879 18.6907 36.7092 18.677 38.5481 18.6358L42.1299 18.5535C42.6651 18.5398 43.5433 18.4986 44.7921 18.4162C44.6549 20.1316 44.5451 21.9019 44.449 23.7271C41.6358 23.6996 38.5619 23.6859 35.2134 23.6859L27.6108 23.6996L25.1544 23.7134Z" fill="black"/>
<path fill-rule="evenodd" clip-rule="evenodd" d="M0 23.7135C0.260738 21.0786 0.425415 18.979 0.521477 17.4009C0.658707 15.0405 0.809661 12.0077 0.946892 8.27501C1.04295 5.40689 1.09785 3.36215 1.09785 2.12708V0.109785C2.44271 0.150954 3.60917 0.164677 4.5835 0.164677C5.5304 0.164677 6.76547 0.137231 8.28873 0.0823384C9.81199 0.0274461 11.2529 0 12.5978 0C14.1348 0 15.4933 0.0960615 16.6461 0.274461C17.8125 0.466584 18.8829 0.837107 19.8984 1.41348C20.9002 1.98984 21.7511 2.74461 22.4235 3.67778C23.0959 4.61095 23.6174 5.69507 23.9742 6.9576C24.331 8.22012 24.5094 9.49636 24.5094 10.8275C24.5094 12.1312 24.3722 13.38 24.0977 14.5876C23.8232 15.7953 23.439 16.8794 22.945 17.8537C22.4509 18.8281 21.8746 19.6514 21.2159 20.3513C20.5434 21.0512 19.7887 21.6413 18.9378 22.1353C18.3066 22.5058 17.6616 22.794 17.0166 22.9999C16.3716 23.2057 15.4933 23.3704 14.3681 23.5076C13.133 23.6448 11.7195 23.7135 10.1413 23.7135L3.15631 23.6586C2.53877 23.6586 1.48209 23.6723 0 23.7135ZM7.47907 18.5124C8.11033 18.5536 8.76904 18.581 9.45519 18.581C10.6354 18.581 11.6783 18.4713 12.5978 18.2654C13.5172 18.0596 14.3269 17.6204 15.013 16.9343C15.7129 16.2481 16.2344 15.3836 16.5637 14.3132C16.9068 13.2428 17.0715 12.1586 17.0715 11.0333C17.0715 9.66104 16.8245 8.5083 16.3305 7.56141C15.8364 6.62824 15.1777 5.96953 14.3543 5.59901C13.5309 5.22849 12.4194 5.05009 11.0059 5.05009C10.1825 5.05009 9.20818 5.09126 8.08289 5.15987L7.47907 18.5124Z" fill="black"/>
<path fill-rule="evenodd" clip-rule="evenodd" d="M2.53876 29.1615H1.83888C1.83888 29.1203 1.83888 29.0243 1.8526 28.9007C1.86633 28.7772 1.88005 28.6812 1.88005 28.6126H1.86633C1.74282 28.791 1.64676 28.9145 1.56442 28.9968C1.48208 29.0791 1.38602 29.134 1.28996 29.1752C1.1939 29.2164 1.07039 29.2438 0.94688 29.2438C0.672419 29.2438 0.45285 29.1478 0.301896 28.9556C0.150942 28.7635 0.0686035 28.4891 0.0686035 28.146C0.0686035 27.7892 0.150942 27.4598 0.315619 27.1442C0.480296 26.8286 0.699865 26.5953 0.974326 26.4306C1.24879 26.2796 1.57814 26.1973 1.94866 26.1973C2.25057 26.1973 2.6211 26.2385 3.03279 26.3345L2.64854 28.2283C2.6211 28.3655 2.59365 28.5302 2.5662 28.7223C2.55248 28.9145 2.53876 29.0654 2.53876 29.1615ZM2.27802 26.7462C2.15451 26.7188 2.031 26.7051 1.89377 26.7051C1.6742 26.7051 1.48208 26.7599 1.3174 26.8697C1.15273 26.9795 1.0155 27.1579 0.919434 27.3775C0.823373 27.6108 0.76848 27.8441 0.76848 28.0911C0.76848 28.2832 0.80965 28.4342 0.878265 28.5302C0.94688 28.64 1.05666 28.6812 1.1939 28.6812C1.39974 28.6812 1.57814 28.5714 1.74282 28.3655C1.9075 28.146 2.031 27.8715 2.09962 27.5147L2.27802 26.7462ZM5.72251 26.9521C5.6539 26.8972 5.55783 26.8423 5.44805 26.8011C5.33826 26.7599 5.22848 26.7325 5.09125 26.7325C4.91285 26.7325 4.74817 26.7874 4.59722 26.8972C4.44626 27.007 4.32276 27.1579 4.2267 27.35C4.13063 27.5559 4.08946 27.7617 4.08946 27.9813C4.08946 28.2146 4.14436 28.393 4.25414 28.5165C4.36393 28.64 4.51488 28.6949 4.707 28.6949C4.83051 28.6949 4.95402 28.6675 5.07753 28.6263C5.21476 28.5851 5.32454 28.5165 5.43433 28.4479L5.31082 29.0242C5.03636 29.1615 4.77562 29.2301 4.51488 29.2301C4.1718 29.2301 3.89734 29.1203 3.70522 28.9145C3.5131 28.7086 3.41703 28.4067 3.41703 28.0362C3.41703 27.6931 3.48565 27.3912 3.6366 27.103C3.78756 26.8148 3.97968 26.5953 4.24042 26.4306C4.50116 26.2659 4.78934 26.1836 5.1187 26.1836C5.25593 26.1836 5.39316 26.1973 5.53039 26.2385C5.66762 26.2659 5.7774 26.3208 5.84602 26.362L5.72251 26.9521ZM8.31617 26.9521C8.24756 26.8972 8.15149 26.8423 8.04171 26.8011C7.93193 26.7599 7.82214 26.7325 7.68491 26.7325C7.50651 26.7325 7.34183 26.7874 7.19088 26.8972C7.03993 27.007 6.91642 27.1579 6.82036 27.35C6.7243 27.5559 6.68313 27.7617 6.68313 27.9813C6.68313 28.2146 6.73802 28.393 6.8478 28.5165C6.95759 28.64 7.10854 28.6949 7.30066 28.6949C7.42417 28.6949 7.54768 28.6675 7.67119 28.6263C7.80842 28.5851 7.9182 28.5165 8.02799 28.4479L7.90448 29.0242C7.63002 29.1615 7.36928 29.2301 7.10854 29.2301C6.76546 29.2301 6.491 29.1203 6.29888 28.9145C6.10676 28.7086 6.01069 28.4067 6.01069 28.0362C6.01069 27.6931 6.07931 27.3912 6.23026 27.103C6.38122 26.8148 6.57334 26.5953 6.83408 26.4306C7.09482 26.2659 7.383 26.1836 7.71236 26.1836C7.84959 26.1836 7.98682 26.1973 8.12405 26.2385C8.26128 26.2659 8.37106 26.3208 8.43968 26.362L8.31617 26.9521ZM11.2529 26.9795C11.2529 27.3226 11.0882 27.5833 10.7589 27.748C10.4295 27.9127 9.93549 27.995 9.27679 28.0087V28.0362V28.0911C9.27679 28.2832 9.33168 28.4342 9.45519 28.5439C9.5787 28.6537 9.72965 28.7086 9.94922 28.7086C10.0864 28.7086 10.2511 28.6812 10.4158 28.6263C10.5805 28.5714 10.7314 28.5028 10.8687 28.4204L10.7589 28.9831C10.4707 29.134 10.1551 29.2164 9.81199 29.2164C9.44146 29.2164 9.13956 29.1066 8.93371 28.9007C8.72786 28.6949 8.61808 28.393 8.61808 28.0087C8.61808 27.6794 8.6867 27.3775 8.83765 27.0893C8.97488 26.8011 9.18073 26.5815 9.44146 26.4169C9.7022 26.2522 9.97666 26.1699 10.2923 26.1699C10.5942 26.1699 10.8412 26.2385 11.0196 26.3894C11.1706 26.5541 11.2529 26.7325 11.2529 26.9795ZM10.5942 26.9932C10.5942 26.8972 10.553 26.8286 10.4844 26.7737C10.4158 26.7188 10.3197 26.6913 10.1962 26.6913C9.99039 26.6913 9.81199 26.7737 9.64731 26.9383C9.48263 27.103 9.37285 27.3089 9.33168 27.5422C10.1688 27.5422 10.5942 27.35 10.5942 26.9932ZM12.2684 29.2164C12.0626 29.2164 11.8979 29.1615 11.7881 29.0654C11.6783 28.9556 11.6234 28.8184 11.6234 28.6263C11.6234 28.5028 11.6646 28.2695 11.7332 27.9401C11.8018 27.6108 12.0214 26.5815 12.3919 24.8799H13.0781L12.3919 28.1048C12.3508 28.2969 12.337 28.4204 12.337 28.4753C12.337 28.6263 12.4194 28.6949 12.584 28.6949C12.6801 28.6949 12.7624 28.6812 12.8448 28.6537L12.735 29.1752C12.5703 29.1889 12.4194 29.2164 12.2684 29.2164ZM15.9325 26.9795C15.9325 27.3226 15.7678 27.5833 15.4384 27.748C15.1091 27.9127 14.6151 27.995 13.9564 28.0087V28.0362V28.0911C13.9564 28.2832 14.0112 28.4342 14.1348 28.5439C14.2583 28.6537 14.4092 28.7086 14.6288 28.7086C14.766 28.7086 14.9307 28.6812 15.0954 28.6263C15.26 28.5714 15.411 28.5028 15.5482 28.4204L15.4384 28.9831C15.1503 29.134 14.8346 29.2164 14.4916 29.2164C14.121 29.2164 13.8191 29.1066 13.6133 28.9007C13.4074 28.6949 13.2976 28.393 13.2976 28.0087C13.2976 27.6794 13.3663 27.3775 13.5172 27.0893C13.6544 26.8011 13.8603 26.5815 14.121 26.4169C14.3818 26.2522 14.6562 26.1699 14.9719 26.1699C15.2738 26.1699 15.5208 26.2385 15.6992 26.3894C15.8501 26.5541 15.9325 26.7325 15.9325 26.9795ZM15.2738 26.9932C15.2738 26.8972 15.2326 26.8286 15.164 26.7737C15.0954 26.7188 14.9993 26.6913 14.8758 26.6913C14.67 26.6913 14.4916 26.7737 14.3269 26.9383C14.1622 27.103 14.0524 27.3089 14.0112 27.5422C14.8484 27.5422 15.2738 27.35 15.2738 26.9932ZM18.3203 26.9246C18.2105 26.8697 18.087 26.8286 17.9909 26.8286C17.7988 26.8286 17.6204 26.9246 17.4557 27.1305C17.2911 27.3226 17.1813 27.5971 17.1127 27.9264L16.8519 29.1752H16.1658L16.5637 27.2814C16.6598 26.8148 16.7147 26.4718 16.7284 26.2659H17.4008C17.3871 26.4443 17.3597 26.6502 17.3185 26.8834H17.3322C17.4557 26.6639 17.5792 26.4992 17.7028 26.3757C17.84 26.2522 17.9909 26.1973 18.1693 26.1973C18.238 26.1973 18.334 26.211 18.4575 26.2385L18.3203 26.9246ZM20.914 29.1615H20.2141C20.2141 29.1203 20.2141 29.0243 20.2278 28.9007C20.2415 28.7772 20.2552 28.6812 20.2552 28.6126H20.2415C20.118 28.791 20.022 28.9145 19.9396 28.9968C19.8573 29.0791 19.7612 29.134 19.6652 29.1752C19.5691 29.2164 19.4456 29.2438 19.3221 29.2438C19.0476 29.2438 18.828 29.1478 18.6771 28.9556C18.5261 28.7635 18.4438 28.4891 18.4438 28.146C18.4438 27.7892 18.5261 27.4598 18.6908 27.1442C18.8555 26.8286 19.0751 26.5953 19.3495 26.4306C19.624 26.2796 19.9533 26.1973 20.3239 26.1973C20.6258 26.1973 20.9963 26.2385 21.408 26.3345L21.01 28.2283C20.9826 28.3655 20.9551 28.5302 20.9277 28.7223C20.9277 28.9145 20.914 29.0654 20.914 29.1615ZM20.6532 26.7462C20.5297 26.7188 20.4062 26.7051 20.269 26.7051C20.0494 26.7051 19.8573 26.7599 19.6926 26.8697C19.5279 26.9795 19.3907 27.1579 19.2946 27.3775C19.1986 27.6108 19.1437 27.8441 19.1437 28.0911C19.1437 28.2832 19.1848 28.4342 19.2535 28.5302C19.3221 28.64 19.4319 28.6812 19.5691 28.6812C19.7749 28.6812 19.9533 28.5714 20.118 28.3655C20.2827 28.146 20.4062 27.8715 20.4748 27.5147L20.6532 26.7462ZM23.6723 26.7874H22.9724L22.698 28.1048C22.6705 28.2695 22.6431 28.3793 22.6431 28.4342C22.6431 28.5165 22.6568 28.5851 22.698 28.6263C22.7391 28.6675 22.8077 28.6812 22.8901 28.6812C22.9724 28.6812 23.1096 28.6537 23.288 28.5851L23.1783 29.1203C22.9861 29.1889 22.8077 29.2301 22.6156 29.2301C22.1628 29.2301 21.9432 29.0105 21.9432 28.5714C21.9432 28.4616 21.9569 28.3107 21.9981 28.146L22.2863 26.8011H21.8197L21.9432 26.2659H22.396L22.547 25.566L23.2743 25.3739L23.0959 26.2522H23.8095L23.6723 26.7874ZM25.3328 25.2779C25.3328 25.3876 25.2916 25.4837 25.2093 25.566C25.1269 25.6347 25.0309 25.6758 24.9074 25.6758C24.7976 25.6758 24.7015 25.6484 24.6192 25.5798C24.5368 25.5111 24.4957 25.4151 24.4957 25.3053C24.4957 25.1955 24.5368 25.0995 24.6192 25.0171C24.7015 24.9485 24.7976 24.9073 24.9211 24.9073C25.0309 24.9073 25.1269 24.9485 25.2093 25.0171C25.2916 25.0857 25.3328 25.1681 25.3328 25.2779ZM24.5643 29.2164C24.3584 29.2164 24.1938 29.1615 24.084 29.0517C23.9742 28.9419 23.9193 28.791 23.9193 28.5988C23.9193 28.5028 23.933 28.4067 23.9468 28.3107L24.3722 26.2522H25.0583L24.6741 28.0774C24.6329 28.2695 24.6192 28.393 24.6192 28.4479C24.6192 28.5988 24.7015 28.6674 24.8662 28.6674C24.9623 28.6674 25.0446 28.6537 25.1269 28.6263L25.0172 29.1478C24.8525 29.1889 24.7015 29.2164 24.5643 29.2164ZM28.5028 26.9658C28.5028 27.0619 28.4754 27.254 28.4205 27.5284L28.0774 29.1615H27.3912L27.748 27.4735C27.7892 27.2677 27.8029 27.1442 27.8029 27.103C27.8029 26.9932 27.7755 26.8972 27.7206 26.8286C27.6657 26.7599 27.5696 26.7188 27.4599 26.7188C27.3364 26.7188 27.2128 26.7599 27.0756 26.856C26.9384 26.9521 26.8149 27.0756 26.7051 27.2403C26.5953 27.4049 26.5267 27.5559 26.4992 27.7206L26.1973 29.1478H25.4975L25.9366 27.1167C26.0052 26.7874 26.0601 26.4992 26.0876 26.2385H26.76C26.7463 26.4031 26.7188 26.609 26.6776 26.856H26.6914C26.8423 26.6364 27.0207 26.458 27.2128 26.3483C27.405 26.2247 27.5971 26.1699 27.7892 26.1699C28.0225 26.1699 28.2009 26.2385 28.3381 26.3757C28.4342 26.5267 28.5028 26.7188 28.5028 26.9658ZM29.6007 30.5338C29.285 30.5338 28.9831 30.4652 28.6949 30.3142L28.8184 29.7378C29.0929 29.9162 29.3674 29.9986 29.6418 29.9986C29.93 29.9986 30.1633 29.9162 30.3417 29.7516C30.5201 29.5869 30.6299 29.3262 30.7122 28.9694L30.7808 28.6126H30.7671C30.6299 28.8321 30.4789 28.9831 30.3417 29.0791C30.1908 29.1752 30.0398 29.2164 29.8614 29.2164C29.5869 29.2164 29.3811 29.1203 29.2164 28.9282C29.0655 28.7361 28.9831 28.4753 28.9831 28.1185C28.9831 27.7617 29.0655 27.4324 29.2164 27.1167C29.3811 26.8148 29.5869 26.5815 29.8614 26.4031C30.1359 26.2385 30.4515 26.1561 30.7946 26.1561C31.0965 26.1561 31.4807 26.1973 31.9473 26.2934L31.3984 28.8596C31.316 29.2713 31.1925 29.5869 31.0416 29.8202C30.8906 30.0535 30.6985 30.2182 30.4515 30.3279C30.2456 30.4789 29.9437 30.5338 29.6007 30.5338ZM31.1925 26.7462C31.069 26.7188 30.9318 26.7051 30.7534 26.7051C30.5613 26.7051 30.3692 26.7737 30.2045 26.8972C30.0398 27.0207 29.9026 27.1854 29.8202 27.4049C29.7242 27.6245 29.683 27.8578 29.683 28.1048C29.683 28.2969 29.7242 28.4479 29.7928 28.5577C29.8751 28.6537 29.9712 28.7086 30.1084 28.7086C30.2456 28.7086 30.3692 28.6674 30.4789 28.5714C30.6024 28.4753 30.7122 28.3381 30.8083 28.146C30.9044 27.9539 30.973 27.748 31.0279 27.5422L31.1925 26.7462ZM35.3918 25.2779C35.3918 25.3876 35.3506 25.4837 35.2683 25.566C35.186 25.6347 35.0899 25.6758 34.9664 25.6758C34.8566 25.6758 34.7605 25.6484 34.6782 25.5798C34.5959 25.5111 34.5547 25.4151 34.5547 25.3053C34.5547 25.1955 34.5959 25.0995 34.6782 25.0171C34.7605 24.9485 34.8566 24.9073 34.9801 24.9073C35.0899 24.9073 35.186 24.9485 35.2683 25.0171C35.3506 25.0857 35.3918 25.1681 35.3918 25.2779ZM34.6233 29.2164C34.4175 29.2164 34.2528 29.1615 34.143 29.0517C34.0332 28.9419 33.9783 28.791 33.9783 28.5988C33.9783 28.5028 33.992 28.4067 34.0058 28.3107L34.4312 26.2522H35.1173L34.7331 28.0774C34.6919 28.2695 34.6782 28.393 34.6782 28.4479C34.6782 28.5988 34.7605 28.6674 34.9252 28.6674C35.0213 28.6674 35.1036 28.6537 35.186 28.6263L35.0762 29.1478C34.9252 29.1889 34.7605 29.2164 34.6233 29.2164ZM38.5618 26.9658C38.5618 27.0619 38.5344 27.254 38.4795 27.5284L38.1364 29.1615H37.4503L37.8071 27.4735C37.8482 27.2677 37.862 27.1442 37.862 27.103C37.862 26.9932 37.8345 26.8972 37.7796 26.8286C37.7247 26.7599 37.6287 26.7188 37.5189 26.7188C37.3954 26.7188 37.2719 26.7599 37.1346 26.856C36.9974 26.9521 36.8739 27.0756 36.7641 27.2403C36.6543 27.4049 36.5857 27.5559 36.5583 27.7206L36.2564 29.1478H35.5565L35.9956 27.1167C36.0642 26.7874 36.1191 26.4992 36.1466 26.2385H36.819C36.8053 26.4031 36.7778 26.609 36.7367 26.856H36.7504C36.9013 26.6364 37.0797 26.458 37.2719 26.3483C37.464 26.2247 37.6561 26.1699 37.8482 26.1699C38.0815 26.1699 38.2599 26.2385 38.3972 26.3757C38.5069 26.5267 38.5618 26.7188 38.5618 26.9658ZM41.9789 26.9658C41.9789 27.0619 41.9514 27.254 41.8965 27.5284L41.5535 29.1615H40.8673L41.2241 27.4735C41.2653 27.2677 41.279 27.1442 41.279 27.103C41.279 26.9932 41.2516 26.8972 41.1967 26.8286C41.1418 26.7599 41.0457 26.7188 40.9359 26.7188C40.8124 26.7188 40.6889 26.7599 40.5517 26.856C40.4144 26.9521 40.2909 27.0756 40.1812 27.2403C40.0714 27.4049 40.0028 27.5559 39.9753 27.7206L39.6734 29.1478H38.9735L39.4127 27.1167C39.4813 26.7874 39.5362 26.4992 39.5636 26.2385H40.236C40.2223 26.4031 40.1949 26.609 40.1537 26.856H40.1674C40.3184 26.6364 40.4968 26.458 40.6889 26.3483C40.881 26.2247 41.0732 26.1699 41.2653 26.1699C41.4986 26.1699 41.677 26.2385 41.8142 26.3757C41.9103 26.5267 41.9789 26.7188 41.9789 26.9658ZM45.2999 27.3775C45.2999 27.7343 45.2312 28.0499 45.094 28.3381C44.9568 28.6263 44.7509 28.8458 44.5039 29.0105C44.2569 29.1615 43.9687 29.2438 43.6394 29.2438C43.2688 29.2438 42.9807 29.134 42.7748 28.9282C42.569 28.7223 42.4592 28.4342 42.4592 28.0636C42.4592 27.7068 42.5278 27.3912 42.665 27.103C42.8023 26.8148 43.0081 26.5953 43.2551 26.4306C43.5021 26.2796 43.7903 26.1973 44.1197 26.1973C44.4765 26.1973 44.7647 26.3071 44.9842 26.5129C45.2038 26.7188 45.2999 27.007 45.2999 27.3775ZM44.6137 27.3912C44.6137 27.1854 44.5725 27.0344 44.4765 26.9109C44.3804 26.7874 44.2569 26.7325 44.0922 26.7325C43.9138 26.7325 43.7629 26.7874 43.6256 26.9109C43.4884 27.0344 43.3786 27.1854 43.2963 27.3912C43.214 27.5971 43.1728 27.8166 43.1728 28.0362C43.1728 28.242 43.214 28.4067 43.31 28.5165C43.4061 28.6263 43.5296 28.6949 43.6943 28.6949C43.8727 28.6949 44.0236 28.64 44.1746 28.5165C44.3118 28.393 44.4216 28.242 44.5039 28.0362C44.5725 27.8303 44.6137 27.6245 44.6137 27.3912ZM46.9055 29.1615H46.2056L45.7802 26.2522H46.4663L46.6584 27.9676C46.6722 28.1323 46.6859 28.2969 46.6859 28.4479V28.5302H46.6996C46.782 28.3381 46.8643 28.146 46.9604 27.9676L47.8661 26.2385H48.6208L46.9055 29.1615ZM50.9675 29.1615H50.2676C50.2676 29.1203 50.2676 29.0243 50.2813 28.9007C50.2951 28.7772 50.3088 28.6812 50.3088 28.6126H50.2951C50.1716 28.791 50.0755 28.9145 49.9931 28.9968C49.9108 29.0791 49.8148 29.134 49.7187 29.1752C49.6226 29.2164 49.4991 29.2438 49.3756 29.2438C49.1012 29.2438 48.8816 29.1478 48.7306 28.9556C48.5797 28.7635 48.4973 28.4891 48.4973 28.146C48.4973 27.7892 48.5797 27.4598 48.7444 27.1442C48.909 26.8286 49.1286 26.5953 49.4031 26.4306C49.6775 26.2796 50.0069 26.1973 50.3774 26.1973C50.6793 26.1973 51.0498 26.2385 51.4615 26.3345L51.0636 28.2283C51.0361 28.3655 51.0087 28.5302 50.9812 28.7223C50.9812 28.9145 50.9675 29.0654 50.9675 29.1615ZM50.7068 26.7462C50.5832 26.7188 50.4597 26.7051 50.3225 26.7051C50.1029 26.7051 49.9108 26.7599 49.7461 26.8697C49.5815 26.9795 49.4442 27.1579 49.3482 27.3775C49.2521 27.6108 49.1972 27.8441 49.1972 28.0911C49.1972 28.2832 49.2384 28.4342 49.307 28.5302C49.3756 28.64 49.4854 28.6812 49.6226 28.6812C49.8285 28.6812 50.0069 28.5714 50.1716 28.3655C50.3362 28.146 50.4597 27.8715 50.5284 27.5147L50.7068 26.7462ZM53.7396 26.7874H53.0397L52.7652 28.1048C52.7378 28.2695 52.7103 28.3793 52.7103 28.4342C52.7103 28.5165 52.724 28.5851 52.7652 28.6263C52.8064 28.6675 52.875 28.6812 52.9573 28.6812C53.0397 28.6812 53.1769 28.6537 53.3553 28.5851L53.2455 29.1203C53.0534 29.1889 52.875 29.2301 52.6829 29.2301C52.23 29.2301 52.0104 29.0105 52.0104 28.5714C52.0104 28.4616 52.0242 28.3107 52.0653 28.146L52.3535 26.8011H51.8869L52.0104 26.2659H52.4633L52.6143 25.566L53.3416 25.3739L53.1632 26.2522H53.8768L53.7396 26.7874ZM55.3863 25.2779C55.3863 25.3876 55.3452 25.4837 55.2628 25.566C55.1805 25.6347 55.0844 25.6758 54.9609 25.6758C54.8511 25.6758 54.7551 25.6484 54.6727 25.5798C54.5904 25.5111 54.5492 25.4151 54.5492 25.3053C54.5492 25.1955 54.5904 25.0995 54.6727 25.0171C54.7551 24.9485 54.8511 24.9073 54.9746 24.9073C55.0844 24.9073 55.1805 24.9485 55.2628 25.0171C55.3452 25.0857 55.3863 25.1681 55.3863 25.2779ZM54.6178 29.2164C54.412 29.2164 54.2473 29.1615 54.1375 29.0517C54.0277 28.9419 53.9728 28.791 53.9728 28.5988C53.9728 28.5028 53.9866 28.4067 54.0003 28.3107L54.4257 26.2522H55.1119L54.7276 28.0774C54.6864 28.2695 54.6727 28.393 54.6727 28.4479C54.6727 28.5988 54.7551 28.6674 54.9197 28.6674C55.0158 28.6674 55.0981 28.6537 55.1805 28.6263L55.0707 29.1478C54.906 29.1889 54.7551 29.2164 54.6178 29.2164ZM58.474 27.3775C58.474 27.7343 58.4054 28.0499 58.2682 28.3381C58.1309 28.6263 57.9251 28.8458 57.6781 29.0105C57.4311 29.1615 57.1429 29.2438 56.8135 29.2438C56.443 29.2438 56.1548 29.134 55.949 28.9282C55.7431 28.7223 55.6333 28.4342 55.6333 28.0636C55.6333 27.7068 55.702 27.3912 55.8392 27.103C55.9764 26.8148 56.1823 26.5953 56.4293 26.4306C56.6763 26.2796 56.9645 26.1973 57.2938 26.1973C57.6506 26.1973 57.9388 26.3071 58.1584 26.5129C58.3642 26.7188 58.474 27.007 58.474 27.3775ZM57.7741 27.3912C57.7741 27.1854 57.733 27.0344 57.6369 26.9109C57.5408 26.7874 57.4173 26.7325 57.2527 26.7325C57.0743 26.7325 56.9233 26.7874 56.7861 26.9109C56.6488 27.0344 56.5391 27.1854 56.4567 27.3912C56.3744 27.5971 56.3332 27.8166 56.3332 28.0362C56.3332 28.242 56.3744 28.4067 56.4704 28.5165C56.5665 28.6263 56.69 28.6949 56.8547 28.6949C57.0331 28.6949 57.184 28.64 57.335 28.5165C57.4722 28.393 57.582 28.242 57.6644 28.0362C57.733 27.8303 57.7741 27.6245 57.7741 27.3912ZM61.8224 26.9658C61.8224 27.0619 61.795 27.254 61.7401 27.5284L61.397 29.1615H60.7109L61.0677 27.4735C61.1088 27.2677 61.1226 27.1442 61.1226 27.103C61.1226 26.9932 61.0951 26.8972 61.0402 26.8286C60.9853 26.7599 60.8893 26.7188 60.7795 26.7188C60.656 26.7188 60.5325 26.7599 60.3952 26.856C60.258 26.9521 60.1345 27.0756 60.0247 27.2403C59.9149 27.4049 59.8463 27.5559 59.8189 27.7206L59.517 29.1478H58.8171L59.2562 27.1167C59.3248 26.7874 59.3797 26.4992 59.4072 26.2385H60.0796C60.0659 26.4031 60.0384 26.609 59.9973 26.856H60.011C60.1619 26.6364 60.3404 26.458 60.5325 26.3483C60.7246 26.2247 60.9167 26.1699 61.1088 26.1699C61.3421 26.1699 61.5205 26.2385 61.6578 26.3757C61.7675 26.5267 61.8224 26.7188 61.8224 26.9658Z" fill="black"/>
<path fill-rule="evenodd" clip-rule="evenodd" d="M76.4649 10.2099L68.2311 0.0136719H75.422L79.7722 5.47545L76.4649 10.2099Z" fill="#4AB27C"/>
<path fill-rule="evenodd" clip-rule="evenodd" d="M68.3683 29.9027L76.7394 18.1694L80.6367 23.3568L75.916 29.9027H68.3683Z" fill="#009246"/>
<path fill-rule="evenodd" clip-rule="evenodd" d="M87.114 14.2446L79.6898 14.3407L92.4797 29.9026H100L87.114 14.2446Z" fill="#009246"/>
</g>
<defs>
<clipPath id="clip0">
<rect width="100" height="30.5338" fill="white"/>
</clipPath>
</defs>
</svg>
