<svg width="108" height="108" viewBox="0 0 108 108" fill="none" xmlns="http://www.w3.org/2000/svg">
<circle cx="54" cy="54" r="54" fill="#EFF1FE"/>
<path d="M56.5833 71.9172H51.1667C50.8076 71.9172 50.4631 72.0599 50.2092 72.3139C49.9552 72.5678 49.8126 72.9122 49.8126 73.2714C49.8126 73.6305 49.9552 73.975 50.2092 74.2289C50.4631 74.4829 50.8076 74.6255 51.1667 74.6255H56.5833C56.9425 74.6255 57.2869 74.4829 57.5409 74.2289C57.7948 73.975 57.9375 73.6305 57.9375 73.2714C57.9375 72.9122 57.7948 72.5678 57.5409 72.3139C57.2869 72.0599 56.9425 71.9172 56.5833 71.9172Z" fill="#5871E7"/>
<path d="M57.9375 67.8547H49.8126C49.4534 67.8547 49.109 67.9974 48.8551 68.2514C48.6011 68.5053 48.4584 68.8497 48.4584 69.2089C48.4584 69.568 48.6011 69.9125 48.8551 70.1664C49.109 70.4204 49.4534 70.563 49.8126 70.563H57.9375C58.2966 70.563 58.6411 70.4204 58.895 70.1664C59.149 69.9125 59.2916 69.568 59.2916 69.2089C59.2916 68.8497 59.149 68.5053 58.895 68.2514C58.6411 67.9974 58.2966 67.8547 57.9375 67.8547Z" fill="#5871E7"/>
<path d="M63.4743 37.9516C60.9293 35.4033 57.5203 34 53.8751 34C52.0956 33.9958 50.3328 34.3432 48.6879 35.0222C47.0431 35.7012 45.5486 36.6985 44.2903 37.9568C43.032 39.2151 42.0347 40.7096 41.3557 42.3544C40.6767 43.9993 40.3293 45.7621 40.3335 47.5416C40.3335 51.4872 41.846 55.1781 44.4806 57.6672L44.8496 58.0134C46.3739 59.4386 48.4584 61.3912 48.4584 63.1143V65.1455C48.4584 65.5047 48.6011 65.8491 48.8551 66.1031C49.109 66.357 49.4535 66.4997 49.8126 66.4997H51.8438C52.0234 66.4997 52.1956 66.4284 52.3226 66.3014C52.4496 66.1744 52.5209 66.0022 52.5209 65.8226V55.9051C52.5209 55.7682 52.4795 55.6345 52.402 55.5216C52.3244 55.4088 52.2145 55.322 52.0867 55.2729C51.3048 54.9539 50.5619 54.5464 49.8727 54.0584C49.7178 53.9595 49.5847 53.8301 49.4814 53.6781C49.3781 53.5261 49.3069 53.3546 49.272 53.1742C49.2371 52.9938 49.2393 52.8081 49.2784 52.6286C49.3176 52.449 49.3929 52.2793 49.4998 52.1298C49.6066 51.9803 49.7428 51.8541 49.9 51.7589C50.0571 51.6637 50.2321 51.6014 50.4141 51.576C50.5961 51.5506 50.7814 51.5624 50.9586 51.6109C51.1359 51.6594 51.3015 51.7434 51.4452 51.8579C52.0715 52.3014 53.2775 52.9582 53.8751 52.9582C54.4726 52.9582 55.6786 52.2997 56.3066 51.8579C56.599 51.6741 56.9506 51.6089 57.2895 51.6758C57.6283 51.7427 57.9288 51.9365 58.1295 52.2176C58.3302 52.4987 58.4158 52.8459 58.369 53.188C58.3221 53.5302 58.1463 53.8416 57.8774 54.0584C57.1881 54.5455 56.4452 54.9522 55.6634 55.2704C55.5356 55.3195 55.4257 55.4062 55.3481 55.5191C55.2706 55.632 55.2292 55.7657 55.2292 55.9026V65.8226C55.2292 66.0022 55.3005 66.1744 55.4275 66.3014C55.5545 66.4284 55.7267 66.4997 55.9063 66.4997H57.9375C58.2967 66.4997 58.6411 66.357 58.895 66.1031C59.149 65.8491 59.2917 65.5047 59.2917 65.1455V63.1143C59.2917 61.4318 61.3534 59.481 62.859 58.0557L63.2746 57.6613C65.9846 55.074 67.4166 51.571 67.4166 47.5416C67.4255 45.7619 67.0818 43.9981 66.4051 42.3521C65.7285 40.7061 64.7323 39.2104 63.4743 37.9516Z" fill="#5871E7"/>
</svg>
