<svg width="108" height="108" viewBox="0 0 108 108" fill="none" xmlns="http://www.w3.org/2000/svg">
<circle cx="54" cy="54" r="54" fill="#F3F6EF"/>
<path d="M77 59.2C77 60.4 74.7 61.2 72.0167 61.6C70.2917 58.2 66.8417 55.6 62.8167 53.8C63.2 53.2 63.5833 52.8 63.9667 52.2H65.5C71.4417 52 77 55.8 77 59.2ZM44.0333 52H42.5C36.5583 52 31 55.8 31 59.2C31 60.4 33.3 61.2 35.9833 61.6C37.7083 58.2 41.1583 55.6 45.1833 53.8L44.0333 52ZM54 54C58.2167 54 61.6667 50.4 61.6667 46C61.6667 41.6 58.2167 38 54 38C49.7833 38 46.3333 41.6 46.3333 46C46.3333 50.4 49.7833 54 54 54ZM54 56C46.1417 56 38.6667 61.2 38.6667 66C38.6667 70 54 70 54 70C54 70 69.3333 70 69.3333 66C69.3333 61.2 61.8583 56 54 56ZM64.925 50H65.5C68.7583 50 71.25 47.4 71.25 44C71.25 40.6 68.7583 38 65.5 38C64.5417 38 63.775 38.2 63.0083 38.6C64.5417 40.6 65.5 43.2 65.5 46C65.5 47.4 65.3083 48.8 64.925 50ZM42.5 50H43.075C42.6917 48.8 42.5 47.4 42.5 46C42.5 43.2 43.4583 40.6 44.9917 38.6C44.225 38.2 43.4583 38 42.5 38C39.2417 38 36.75 40.6 36.75 44C36.75 47.4 39.2417 50 42.5 50Z" fill="#7C9753"/>
</svg>
