<svg width="24" height="25" viewBox="0 0 24 25" fill="none" xmlns="http://www.w3.org/2000/svg">
<g clip-path="url(#clip0)">
<path d="M12.0015 7.51147C9.15899 7.51147 6.84619 9.82409 6.84619 12.6668C6.84619 15.5093 9.15899 17.8221 12.0015 17.8221C14.8442 17.8221 17.1568 15.5093 17.1568 12.6668C17.1568 9.82409 14.8442 7.51147 12.0015 7.51147V7.51147Z" fill="white"/>
<path fill-rule="evenodd" clip-rule="evenodd" d="M6.49657 0.666748H17.5034C21.0857 0.666748 24 3.58105 24 7.16332V18.1703C24 21.7524 21.0857 24.6667 17.5036 24.6667H6.49657C2.9143 24.6667 0 21.7524 0 18.1703V7.16332C0 3.58105 2.9143 0.666748 6.49657 0.666748ZM5.43767 12.6667C5.43767 16.2852 8.38145 19.229 12 19.229C15.6185 19.229 18.5623 16.2852 18.5623 12.6667C18.5623 9.0482 15.6185 6.10442 12 6.10442C8.38145 6.10442 5.43767 9.0482 5.43767 12.6667ZM16.7801 5.71294C16.7801 6.78228 17.6499 7.65203 18.7192 7.65203C19.7885 7.65203 20.6585 6.78228 20.6585 5.71294C20.6585 4.64361 19.7885 3.77368 18.7192 3.77368C17.6499 3.77368 16.7801 4.64361 16.7801 5.71294ZM18.1865 5.71326C18.1865 5.41992 18.4252 5.18115 18.7186 5.18115C19.0121 5.18115 19.2509 5.41974 19.2509 5.71326C19.2509 6.00677 19.0121 6.24536 18.7186 6.24536C18.4252 6.24536 18.1865 6.00659 18.1865 5.71326Z" fill="white"/>
</g>
<defs>
<clipPath id="clip0">
<rect width="24" height="24" fill="white" transform="translate(0 0.666748)"/>
</clipPath>
</defs>
</svg>
