<svg width="22" height="25" viewBox="0 0 22 25" fill="none" xmlns="http://www.w3.org/2000/svg">
<path d="M11 0C13.9174 0 16.7153 1.12882 18.7782 3.13814C20.8411 5.14746 22 7.87268 22 10.7143C22 15.15 18.5289 19.7976 11.7333 24.7619C11.5218 24.9165 11.2645 25 11 25C10.7355 25 10.4782 24.9165 10.2667 24.7619C3.47111 19.7976 0 15.15 0 10.7143C0 7.87268 1.15893 5.14746 3.22183 3.13814C5.28473 1.12882 8.08262 0 11 0ZM11 7.14286C10.0275 7.14286 9.09491 7.51913 8.40727 8.1889C7.71964 8.85868 7.33333 9.76708 7.33333 10.7143C7.33333 11.6615 7.71964 12.5699 8.40727 13.2397C9.09491 13.9094 10.0275 14.2857 11 14.2857C11.9725 14.2857 12.9051 13.9094 13.5927 13.2397C14.2804 12.5699 14.6667 11.6615 14.6667 10.7143C14.6667 9.76708 14.2804 8.85868 13.5927 8.1889C12.9051 7.51913 11.9725 7.14286 11 7.14286Z" fill="#848EC2"/>
</svg>
