<svg width="137" height="49" viewBox="0 0 137 49" fill="none" xmlns="http://www.w3.org/2000/svg">
<path fill-rule="evenodd" clip-rule="evenodd" d="M119.346 22.8593L132.714 0.0219727H123.633L109.175 22.9914L126.697 47.9869H137L119.346 22.8593Z" fill="white"/>
<path fill-rule="evenodd" clip-rule="evenodd" d="M74.5068 38.0547L73.642 34.6633L67.8702 15.1514L63.3204 0.154053C65.4637 0.198098 67.3814 0.22012 69.0546 0.22012C70.0887 0.22012 71.6867 0.198098 73.8864 0.154053C74.2436 1.80574 74.5256 3.06102 74.7324 3.89787C75.0144 4.999 75.5596 7.00304 76.3493 9.91001L79.8274 23.0354C80.1658 24.4008 80.5982 26.1846 81.1058 28.3869L82.1963 25.1936L89.6601 6.10012L95.8643 15.1073L88.8329 31.448C88.0433 33.2979 87.1596 35.5001 86.182 38.0327C83.5311 37.9887 81.6322 37.9666 80.4854 37.9666C79.4514 37.9887 77.4585 38.0107 74.5068 38.0547Z" fill="white"/>
<path fill-rule="evenodd" clip-rule="evenodd" d="M34.4615 38.0547C34.8563 33.2759 35.1383 29.2898 35.3263 26.0525C35.4955 22.8372 35.6835 18.5648 35.8715 13.2134C36.0595 7.88394 36.1535 4.33832 36.1535 2.59855L36.1347 0.154053C39.8573 0.198098 44.3694 0.22012 49.6524 0.22012C54.5217 0.22012 58.8271 0.198098 62.5496 0.154053L62.4932 1.079C62.4744 1.29922 62.4368 2.09203 62.3804 3.50147L62.23 6.51855C62.1924 7.1572 62.1736 7.81787 62.1736 8.47855C59.1279 8.32439 56.5898 8.25832 54.5029 8.25832C52.2281 8.25832 50.7052 8.25832 49.8968 8.28034C49.0884 8.28034 47.8663 8.32439 46.1743 8.41248L45.8923 14.777C47.7535 14.843 49.9344 14.8651 52.3973 14.8651C53.2809 14.8651 55.631 14.799 59.4475 14.6669C59.2783 17.0233 59.1467 19.8642 58.9963 23.1235C56.2702 23.0794 54.1645 23.0574 52.6981 23.0574C50.5172 23.0574 48.0731 23.1235 45.3846 23.2336L45.0838 29.9945H47.8099C48.6183 29.9945 50.2916 29.9725 52.8109 29.9064L57.7178 29.7743C58.4511 29.7523 59.6543 29.6862 61.3651 29.5541C61.1771 32.3069 61.0267 35.1478 60.8951 38.0768C57.041 38.0327 52.8297 38.0107 48.2423 38.0107L37.8268 38.0327L34.4615 38.0547Z" fill="white"/>
<path fill-rule="evenodd" clip-rule="evenodd" d="M0 38.0548C0.357211 33.8265 0.582819 30.4571 0.714423 27.9245C0.902429 24.1366 1.10924 19.2697 1.29724 13.2795C1.42885 8.67685 1.50405 5.3955 1.50405 3.41348V0.17618C3.34651 0.242247 4.94456 0.26427 6.2794 0.26427C7.57664 0.26427 9.2687 0.220225 11.3556 0.132135C13.4424 0.0440449 15.4165 0 17.259 0C19.3646 0 21.2259 0.154157 22.8051 0.440449C24.4032 0.748764 25.8696 1.34337 27.2609 2.26831C28.6333 3.19326 29.799 4.40449 30.7202 5.90202C31.6414 7.39955 32.3558 9.13933 32.8447 11.1654C33.3335 13.1915 33.5779 15.2395 33.5779 17.3757C33.5779 19.4679 33.3899 21.4719 33.0139 23.4099C32.6378 25.3479 32.1114 27.0876 31.4346 28.6512C30.7578 30.2148 29.9682 31.5362 29.0657 32.6593C28.1445 33.7825 27.1105 34.7294 25.9448 35.5222C25.08 36.1169 24.1964 36.5793 23.3127 36.9097C22.4291 37.24 21.2259 37.5043 19.6842 37.7245C17.9922 37.9447 16.0557 38.0548 13.8936 38.0548L4.32414 37.9667C3.47811 37.9667 2.03047 37.9888 0 38.0548ZM10.2463 29.7083C11.1112 29.7744 12.0136 29.8184 12.9536 29.8184C14.5705 29.8184 15.9993 29.6422 17.259 29.3119C18.5186 28.9816 19.6278 28.2769 20.5679 27.1757C21.5267 26.0746 22.2411 24.6872 22.6923 22.9694C23.1623 21.2517 23.388 19.5119 23.388 17.7061C23.388 15.5038 23.0495 13.6539 22.3727 12.1344C21.6959 10.6369 20.7935 9.57977 19.6654 8.98517C18.5374 8.39056 17.0145 8.10427 15.0781 8.10427C13.95 8.10427 12.6152 8.17034 11.0736 8.28045L10.2463 29.7083Z" fill="white"/>
<path fill-rule="evenodd" clip-rule="evenodd" d="M3.4781 46.7978H2.51927C2.51927 46.7317 2.51927 46.5775 2.53807 46.3793C2.55687 46.1811 2.57568 46.027 2.57568 45.9169H2.55687C2.38767 46.2032 2.25606 46.4014 2.14326 46.5335C2.03046 46.6656 1.89885 46.7537 1.76725 46.8198C1.63564 46.8859 1.46644 46.9299 1.29723 46.9299C0.921221 46.9299 0.620411 46.7757 0.413605 46.4674C0.206798 46.1591 0.0939941 45.7187 0.0939941 45.1681C0.0939941 44.5955 0.206798 44.067 0.432405 43.5605C0.658013 43.0539 0.958822 42.6796 1.33483 42.4153C1.71085 42.1731 2.16206 42.0409 2.66968 42.0409C3.08329 42.0409 3.59091 42.107 4.15493 42.2611L3.62851 45.3002C3.59091 45.5205 3.55331 45.7847 3.51571 46.0931C3.49691 46.4014 3.4781 46.6436 3.4781 46.7978ZM3.12089 42.9218C2.95169 42.8778 2.78248 42.8557 2.59448 42.8557C2.29367 42.8557 2.03046 42.9438 1.80485 43.12C1.57924 43.2962 1.39124 43.5825 1.25963 43.9348C1.12803 44.3092 1.05283 44.6836 1.05283 45.08C1.05283 45.3883 1.10923 45.6306 1.20323 45.7847C1.29723 45.9609 1.44764 46.027 1.63564 46.027C1.91765 46.027 2.16206 45.8508 2.38767 45.5205C2.61328 45.1681 2.78248 44.7277 2.87648 44.1551L3.12089 42.9218ZM7.83985 43.2521C7.74584 43.1641 7.61424 43.076 7.46383 43.0099C7.31343 42.9438 7.16302 42.8998 6.97502 42.8998C6.73061 42.8998 6.505 42.9879 6.2982 43.1641C6.09139 43.3402 5.92218 43.5825 5.79058 43.8908C5.65898 44.2211 5.60257 44.5515 5.60257 44.9038C5.60257 45.2782 5.67778 45.5645 5.82818 45.7627C5.97859 45.9609 6.18539 46.049 6.4486 46.049C6.61781 46.049 6.78701 46.005 6.95622 45.9389C7.14422 45.8728 7.29463 45.7627 7.44503 45.6526L7.27583 46.5775C6.89982 46.7978 6.5426 46.9079 6.18539 46.9079C5.71538 46.9079 5.33937 46.7317 5.07616 46.4014C4.81295 46.071 4.68134 45.5865 4.68134 44.9919C4.68134 44.4414 4.77535 43.9569 4.98215 43.4944C5.18896 43.0319 5.45217 42.6796 5.80938 42.4153C6.16659 42.151 6.56141 42.0189 7.01262 42.0189C7.20063 42.0189 7.38863 42.0409 7.57664 42.107C7.76464 42.151 7.91505 42.2391 8.00905 42.3052L7.83985 43.2521ZM11.3932 43.2521C11.2992 43.1641 11.1676 43.076 11.0171 43.0099C10.8667 42.9438 10.7163 42.8998 10.5283 42.8998C10.2839 42.8998 10.0583 42.9879 9.85151 43.1641C9.64471 43.3402 9.4755 43.5825 9.3439 43.8908C9.21229 44.2211 9.15589 44.5515 9.15589 44.9038C9.15589 45.2782 9.23109 45.5645 9.3815 45.7627C9.5319 45.9609 9.73871 46.049 10.0019 46.049C10.1711 46.049 10.3403 46.005 10.5095 45.9389C10.6975 45.8728 10.8479 45.7627 10.9984 45.6526L10.8291 46.5775C10.4531 46.7978 10.0959 46.9079 9.73871 46.9079C9.26869 46.9079 8.89268 46.7317 8.62947 46.4014C8.36626 46.071 8.23466 45.5865 8.23466 44.9919C8.23466 44.4414 8.32866 43.9569 8.53547 43.4944C8.74228 43.0319 9.00548 42.6796 9.3627 42.4153C9.71991 42.151 10.1147 42.0189 10.5659 42.0189C10.7539 42.0189 10.9419 42.0409 11.13 42.107C11.318 42.151 11.4684 42.2391 11.5624 42.3052L11.3932 43.2521ZM15.4165 43.2962C15.4165 43.8468 15.1909 44.2652 14.7397 44.5295C14.2885 44.7937 13.6116 44.9259 12.7092 44.9479V44.9919V45.08C12.7092 45.3883 12.7844 45.6306 12.9536 45.8068C13.1228 45.9829 13.3296 46.071 13.6304 46.071C13.8184 46.071 14.044 46.027 14.2697 45.9389C14.4953 45.8508 14.7021 45.7407 14.8901 45.6086L14.7397 46.5115C14.3449 46.7537 13.9124 46.8859 13.4424 46.8859C12.9348 46.8859 12.5212 46.7097 12.2392 46.3793C11.9572 46.049 11.8068 45.5645 11.8068 44.9479C11.8068 44.4193 11.9008 43.9348 12.1076 43.4724C12.2956 43.0099 12.5776 42.6575 12.9348 42.3933C13.292 42.129 13.668 41.9969 14.1005 41.9969C14.5141 41.9969 14.8525 42.107 15.0969 42.3492C15.3037 42.6135 15.4165 42.8998 15.4165 43.2962ZM14.5141 43.3182C14.5141 43.1641 14.4577 43.0539 14.3637 42.9659C14.2697 42.8778 14.1381 42.8337 13.9688 42.8337C13.6868 42.8337 13.4424 42.9659 13.2168 43.2301C12.9912 43.4944 12.8408 43.8247 12.7844 44.1991C13.9312 44.1991 14.5141 43.8908 14.5141 43.3182ZM16.8077 46.8859C16.5257 46.8859 16.3001 46.7978 16.1497 46.6436C15.9993 46.4674 15.9241 46.2472 15.9241 45.9389C15.9241 45.7407 15.9805 45.3663 16.0745 44.8378C16.1685 44.3092 16.4693 42.6575 16.9769 39.9268H17.917L16.9769 45.102C16.9205 45.4104 16.9017 45.6086 16.9017 45.6966C16.9017 45.9389 17.0145 46.049 17.2402 46.049C17.3718 46.049 17.4846 46.027 17.5974 45.9829L17.447 46.8198C17.2214 46.8418 17.0145 46.8859 16.8077 46.8859ZM21.8275 43.2962C21.8275 43.8468 21.6019 44.2652 21.1507 44.5295C20.6995 44.7937 20.0226 44.9259 19.1202 44.9479V44.9919V45.08C19.1202 45.3883 19.1954 45.6306 19.3646 45.8068C19.5338 45.9829 19.7406 46.071 20.0414 46.071C20.2295 46.071 20.4551 46.027 20.6807 45.9389C20.9063 45.8508 21.1131 45.7407 21.3011 45.6086L21.1507 46.5115C20.7559 46.7537 20.3235 46.8859 19.8534 46.8859C19.3458 46.8859 18.9322 46.7097 18.6502 46.3793C18.3682 46.049 18.2178 45.5645 18.2178 44.9479C18.2178 44.4193 18.3118 43.9348 18.5186 43.4724C18.7066 43.0099 18.9886 42.6575 19.3458 42.3933C19.703 42.129 20.079 41.9969 20.5115 41.9969C20.9251 41.9969 21.2635 42.107 21.5079 42.3492C21.7147 42.6135 21.8275 42.8998 21.8275 43.2962ZM20.9251 43.3182C20.9251 43.1641 20.8687 43.0539 20.7747 42.9659C20.6807 42.8778 20.5491 42.8337 20.3799 42.8337C20.0978 42.8337 19.8534 42.9659 19.6278 43.2301C19.4022 43.4944 19.2518 43.8247 19.1954 44.1991C20.3423 44.1991 20.9251 43.8908 20.9251 43.3182ZM25.0988 43.2081C24.9484 43.12 24.7792 43.0539 24.6476 43.0539C24.3844 43.0539 24.14 43.2081 23.9144 43.5384C23.6888 43.8468 23.5384 44.2872 23.4444 44.8157L23.0871 46.8198H22.1471L22.6923 43.7807C22.8239 43.0319 22.8991 42.4814 22.9179 42.151H23.8392C23.8204 42.4373 23.7828 42.7677 23.7264 43.142H23.7452C23.9144 42.7897 24.0836 42.5254 24.2528 42.3272C24.4408 42.129 24.6476 42.0409 24.892 42.0409C24.986 42.0409 25.1176 42.0629 25.2868 42.107L25.0988 43.2081ZM28.6521 46.7978H27.6933C27.6933 46.7317 27.6933 46.5775 27.7121 46.3793C27.7309 46.1811 27.7497 46.027 27.7497 45.9169H27.7309C27.5617 46.2032 27.4301 46.4014 27.3173 46.5335C27.2045 46.6656 27.0729 46.7537 26.9413 46.8198C26.8097 46.8859 26.6405 46.9299 26.4713 46.9299C26.0952 46.9299 25.7944 46.7757 25.5876 46.4674C25.3808 46.1591 25.268 45.7187 25.268 45.1681C25.268 44.5955 25.3808 44.067 25.6064 43.5605C25.832 43.0539 26.1328 42.6796 26.5089 42.4153C26.8849 42.1731 27.3361 42.0409 27.8437 42.0409C28.2573 42.0409 28.7649 42.107 29.3289 42.2611L28.7837 45.3002C28.7461 45.5205 28.7085 45.7847 28.6709 46.0931C28.6709 46.4014 28.6521 46.6436 28.6521 46.7978ZM28.2949 42.9218C28.1257 42.8778 27.9565 42.8557 27.7685 42.8557C27.4677 42.8557 27.2045 42.9438 26.9789 43.12C26.7533 43.2962 26.5653 43.5825 26.4337 43.9348C26.302 44.3092 26.2268 44.6836 26.2268 45.08C26.2268 45.3883 26.2832 45.6306 26.3773 45.7847C26.4713 45.9609 26.6217 46.027 26.8097 46.027C27.0917 46.027 27.3361 45.8508 27.5617 45.5205C27.7873 45.1681 27.9565 44.7277 28.0505 44.1551L28.2949 42.9218ZM32.431 42.9879H31.4722L31.0962 45.102C31.0586 45.3663 31.021 45.5425 31.021 45.6306C31.021 45.7627 31.0398 45.8728 31.0962 45.9389C31.1526 46.005 31.2466 46.027 31.3594 46.027C31.4722 46.027 31.6602 45.9829 31.9046 45.8728L31.7542 46.7317C31.491 46.8418 31.2466 46.9079 30.9834 46.9079C30.363 46.9079 30.0622 46.5555 30.0622 45.8508C30.0622 45.6746 30.081 45.4324 30.1374 45.1681L30.5322 43.0099H29.893L30.0622 42.151H30.6826L30.8894 41.0279L31.8858 40.7196L31.6414 42.129H32.6191L32.431 42.9879ZM34.7059 40.5654C34.7059 40.7416 34.6495 40.8957 34.5367 41.0279C34.4239 41.138 34.2923 41.2041 34.1231 41.2041C33.9727 41.2041 33.8411 41.16 33.7283 41.0499C33.6155 40.9398 33.5591 40.7856 33.5591 40.6095C33.5591 40.4333 33.6155 40.2791 33.7283 40.147C33.8411 40.0369 33.9727 39.9708 34.1419 39.9708C34.2923 39.9708 34.4239 40.0369 34.5367 40.147C34.6495 40.2571 34.7059 40.3892 34.7059 40.5654ZM33.6531 46.8859C33.3711 46.8859 33.1455 46.7978 32.9951 46.6216C32.8447 46.4454 32.7695 46.2032 32.7695 45.8948C32.7695 45.7407 32.7883 45.5865 32.8071 45.4324L33.3899 42.129H34.3299L33.8035 45.058C33.7471 45.3663 33.7283 45.5645 33.7283 45.6526C33.7283 45.8948 33.8411 46.005 34.0667 46.005C34.1983 46.005 34.3111 45.9829 34.4239 45.9389L34.2735 46.7757C34.0479 46.8418 33.8411 46.8859 33.6531 46.8859ZM39.0489 43.2742C39.0489 43.4283 39.0113 43.7366 38.9361 44.1771L38.466 46.7978H37.526L38.0148 44.089C38.0712 43.7587 38.09 43.5605 38.09 43.4944C38.09 43.3182 38.0524 43.1641 37.9772 43.0539C37.902 42.9438 37.7704 42.8778 37.62 42.8778C37.4508 42.8778 37.2816 42.9438 37.0936 43.098C36.9056 43.2522 36.7364 43.4504 36.586 43.7146C36.4356 43.9789 36.3416 44.2211 36.304 44.4854L35.8904 46.7757H34.9315L35.5331 43.5164C35.6272 42.9879 35.7024 42.5254 35.74 42.107H36.6612C36.6424 42.3713 36.6048 42.7016 36.5484 43.098H36.5672C36.774 42.7456 37.0184 42.4593 37.2816 42.2832C37.5448 42.085 37.808 41.9969 38.0712 41.9969C38.3908 41.9969 38.6353 42.107 38.8233 42.3272C38.9549 42.5695 39.0489 42.8778 39.0489 43.2742ZM40.5529 49C40.1205 49 39.7069 48.8899 39.3121 48.6477L39.4813 47.7227C39.8573 48.009 40.2333 48.1411 40.6093 48.1411C41.0041 48.1411 41.3237 48.009 41.5681 47.7447C41.8126 47.4805 41.963 47.062 42.0758 46.4895L42.1698 45.9169H42.151C41.963 46.2692 41.7562 46.5115 41.5681 46.6656C41.3613 46.8198 41.1545 46.8859 40.9101 46.8859C40.5341 46.8859 40.2521 46.7317 40.0265 46.4234C39.8197 46.1151 39.7069 45.6966 39.7069 45.1241C39.7069 44.5515 39.8197 44.0229 40.0265 43.5164C40.2521 43.0319 40.5341 42.6575 40.9101 42.3713C41.2861 42.107 41.7186 41.9748 42.1886 41.9748C42.6022 41.9748 43.1286 42.0409 43.7678 42.1951L43.0158 46.3133C42.903 46.9739 42.7338 47.4805 42.527 47.8548C42.3202 48.2292 42.057 48.4935 41.7186 48.6697C41.4365 48.9119 41.0229 49 40.5529 49ZM42.7338 42.9218C42.5646 42.8778 42.3766 42.8557 42.1322 42.8557C41.869 42.8557 41.6058 42.9659 41.3801 43.1641C41.1545 43.3623 40.9665 43.6265 40.8537 43.9789C40.7221 44.3313 40.6657 44.7056 40.6657 45.102C40.6657 45.4104 40.7221 45.6526 40.8161 45.8288C40.9289 45.9829 41.0605 46.071 41.2485 46.071C41.4365 46.071 41.6058 46.005 41.7562 45.8508C41.9254 45.6966 42.0758 45.4764 42.2074 45.1681C42.339 44.8598 42.433 44.5295 42.5082 44.1991L42.7338 42.9218ZM48.4868 40.5654C48.4868 40.7416 48.4304 40.8957 48.3176 41.0279C48.2048 41.138 48.0732 41.2041 47.904 41.2041C47.7535 41.2041 47.6219 41.16 47.5091 41.0499C47.3963 40.9398 47.3399 40.7856 47.3399 40.6095C47.3399 40.4333 47.3963 40.2791 47.5091 40.147C47.6219 40.0369 47.7535 39.9708 47.9228 39.9708C48.0732 39.9708 48.2048 40.0369 48.3176 40.147C48.4304 40.2571 48.4868 40.3892 48.4868 40.5654ZM47.4339 46.8859C47.1519 46.8859 46.9263 46.7978 46.7759 46.6216C46.6255 46.4454 46.5503 46.2032 46.5503 45.8948C46.5503 45.7407 46.5691 45.5865 46.5879 45.4324L47.1707 42.129H48.1108L47.5843 45.058C47.5279 45.3663 47.5091 45.5645 47.5091 45.6526C47.5091 45.8948 47.6219 46.005 47.8476 46.005C47.9792 46.005 48.092 45.9829 48.2048 45.9389L48.0544 46.7757C47.8476 46.8418 47.6219 46.8859 47.4339 46.8859ZM52.8297 43.2742C52.8297 43.4283 52.7921 43.7366 52.7169 44.1771L52.2469 46.7978H51.3069L51.7957 44.089C51.8521 43.7587 51.8709 43.5605 51.8709 43.4944C51.8709 43.3182 51.8333 43.1641 51.7581 43.0539C51.6829 42.9438 51.5513 42.8778 51.4009 42.8778C51.2317 42.8778 51.0625 42.9438 50.8745 43.098C50.6864 43.2522 50.5172 43.4504 50.3668 43.7146C50.2164 43.9789 50.1224 44.2211 50.0848 44.4854L49.6712 46.7757H48.7124L49.314 43.5164C49.408 42.9879 49.4832 42.5254 49.5208 42.107H50.442C50.4232 42.3713 50.3856 42.7016 50.3292 43.098H50.348C50.5548 42.7456 50.7992 42.4593 51.0625 42.2832C51.3257 42.085 51.5889 41.9969 51.8521 41.9969C52.1717 41.9969 52.4161 42.107 52.6041 42.3272C52.7545 42.5695 52.8297 42.8778 52.8297 43.2742ZM57.5111 43.2742C57.5111 43.4283 57.4735 43.7366 57.3983 44.1771L56.9282 46.7978H55.9882L56.477 44.089C56.5334 43.7587 56.5522 43.5605 56.5522 43.4944C56.5522 43.3182 56.5146 43.1641 56.4394 43.0539C56.3642 42.9438 56.2326 42.8778 56.0822 42.8778C55.913 42.8778 55.7438 42.9438 55.5558 43.098C55.3678 43.2522 55.1986 43.4504 55.0482 43.7146C54.8978 43.9789 54.8038 44.2211 54.7662 44.4854L54.3526 46.7757H53.3937L53.9954 43.5164C54.0894 42.9879 54.1646 42.5254 54.2022 42.107H55.1234C55.1046 42.3713 55.067 42.7016 55.0106 43.098H55.0294C55.2362 42.7456 55.4806 42.4593 55.7438 42.2832C56.007 42.085 56.2702 41.9969 56.5334 41.9969C56.853 41.9969 57.0975 42.107 57.2855 42.3272C57.4171 42.5695 57.5111 42.8778 57.5111 43.2742ZM62.0608 43.9348C62.0608 44.5074 61.9668 45.0139 61.7788 45.4764C61.5908 45.9389 61.3088 46.2913 60.9704 46.5555C60.632 46.7978 60.2372 46.9299 59.7859 46.9299C59.2783 46.9299 58.8835 46.7537 58.6015 46.4234C58.3195 46.0931 58.1691 45.6306 58.1691 45.036C58.1691 44.4634 58.2631 43.9569 58.4511 43.4944C58.6391 43.0319 58.9211 42.6796 59.2595 42.4153C59.5979 42.1731 59.9927 42.0409 60.444 42.0409C60.9328 42.0409 61.3276 42.2171 61.6284 42.5474C61.9292 42.8778 62.0608 43.3402 62.0608 43.9348ZM61.1208 43.9569C61.1208 43.6265 61.0644 43.3843 60.9328 43.1861C60.8012 42.9879 60.632 42.8998 60.4064 42.8998C60.162 42.8998 59.9551 42.9879 59.7671 43.1861C59.5791 43.3843 59.4287 43.6265 59.3159 43.9569C59.2031 44.2872 59.1467 44.6396 59.1467 44.9919C59.1467 45.3223 59.2031 45.5865 59.3347 45.7627C59.4663 45.9389 59.6355 46.049 59.8611 46.049C60.1055 46.049 60.3124 45.9609 60.5192 45.7627C60.7072 45.5645 60.8576 45.3223 60.9704 44.9919C61.0644 44.6616 61.1208 44.3313 61.1208 43.9569ZM64.2605 46.7978H63.3017L62.7188 42.129H63.6589L63.9221 44.8818C63.9409 45.1461 63.9597 45.4104 63.9597 45.6526V45.7847H63.9785C64.0913 45.4764 64.2041 45.1681 64.3357 44.8818L65.5765 42.107H66.6106L64.2605 46.7978ZM69.8255 46.7978H68.8666C68.8666 46.7317 68.8666 46.5775 68.8854 46.3793C68.9042 46.1811 68.923 46.027 68.923 45.9169H68.9042C68.735 46.2032 68.6034 46.4014 68.4906 46.5335C68.3778 46.6656 68.2462 46.7537 68.1146 46.8198C67.983 46.8859 67.8138 46.9299 67.6446 46.9299C67.2686 46.9299 66.9678 46.7757 66.761 46.4674C66.5542 46.1591 66.4414 45.7187 66.4414 45.1681C66.4414 44.5955 66.5542 44.067 66.7798 43.5605C67.0054 43.0539 67.3062 42.6796 67.6822 42.4153C68.0582 42.1731 68.5094 42.0409 69.017 42.0409C69.4307 42.0409 69.9383 42.107 70.5023 42.2611L69.9571 45.3002C69.9195 45.5205 69.8819 45.7847 69.8443 46.0931C69.8443 46.4014 69.8255 46.6436 69.8255 46.7978ZM69.4683 42.9218C69.299 42.8778 69.1298 42.8557 68.9418 42.8557C68.641 42.8557 68.3778 42.9438 68.1522 43.12C67.9266 43.2962 67.7386 43.5825 67.607 43.9348C67.4754 44.3092 67.4002 44.6836 67.4002 45.08C67.4002 45.3883 67.4566 45.6306 67.5506 45.7847C67.6446 45.9609 67.795 46.027 67.983 46.027C68.265 46.027 68.5094 45.8508 68.735 45.5205C68.9606 45.1681 69.1298 44.7277 69.2239 44.1551L69.4683 42.9218ZM73.6232 42.9879H72.6644L72.2883 45.102C72.2507 45.3663 72.2132 45.5425 72.2132 45.6306C72.2132 45.7627 72.2319 45.8728 72.2883 45.9389C72.3447 46.005 72.4388 46.027 72.5516 46.027C72.6644 46.027 72.8524 45.9829 73.0968 45.8728L72.9464 46.7317C72.6832 46.8418 72.4388 46.9079 72.1755 46.9079C71.5551 46.9079 71.2543 46.5555 71.2543 45.8508C71.2543 45.6746 71.2731 45.4324 71.3295 45.1681L71.7243 43.0099H71.0851L71.2543 42.151H71.8747L72.0815 41.0279L73.078 40.7196L72.8336 42.129H73.8112L73.6232 42.9879ZM75.8793 40.5654C75.8793 40.7416 75.8229 40.8957 75.7101 41.0279C75.5973 41.138 75.4657 41.2041 75.2964 41.2041C75.146 41.2041 75.0144 41.16 74.9016 41.0499C74.7888 40.9398 74.7324 40.7856 74.7324 40.6095C74.7324 40.4333 74.7888 40.2791 74.9016 40.147C75.0144 40.0369 75.146 39.9708 75.3152 39.9708C75.4657 39.9708 75.5973 40.0369 75.7101 40.147C75.8229 40.2571 75.8793 40.3892 75.8793 40.5654ZM74.8264 46.8859C74.5444 46.8859 74.3188 46.7978 74.1684 46.6216C74.018 46.4454 73.9428 46.2032 73.9428 45.8948C73.9428 45.7407 73.9616 45.5865 73.9804 45.4324L74.5632 42.129H75.5033L74.9768 45.058C74.9204 45.3663 74.9016 45.5645 74.9016 45.6526C74.9016 45.8948 75.0144 46.005 75.2401 46.005C75.3717 46.005 75.4845 45.9829 75.5973 45.9389L75.4469 46.7757C75.2212 46.8418 75.0144 46.8859 74.8264 46.8859ZM80.1094 43.9348C80.1094 44.5074 80.0154 45.0139 79.8274 45.4764C79.6394 45.9389 79.3574 46.2913 79.019 46.5555C78.6806 46.7978 78.2857 46.9299 77.8345 46.9299C77.3269 46.9299 76.9321 46.7537 76.6501 46.4234C76.3681 46.0931 76.2177 45.6306 76.2177 45.036C76.2177 44.4634 76.3117 43.9569 76.4997 43.4944C76.6877 43.0319 76.9697 42.6796 77.3081 42.4153C77.6465 42.1731 78.0413 42.0409 78.4926 42.0409C78.9814 42.0409 79.3762 42.2171 79.677 42.5474C79.959 42.8778 80.1094 43.3402 80.1094 43.9348ZM79.1506 43.9569C79.1506 43.6265 79.0942 43.3843 78.9626 43.1861C78.831 42.9879 78.6618 42.8998 78.4361 42.8998C78.1917 42.8998 77.9849 42.9879 77.7969 43.1861C77.6089 43.3843 77.4585 43.6265 77.3457 43.9569C77.2329 44.2872 77.1765 44.6396 77.1765 44.9919C77.1765 45.3223 77.2329 45.5865 77.3645 45.7627C77.4961 45.9389 77.6653 46.049 77.8909 46.049C78.1353 46.049 78.3421 45.9609 78.549 45.7627C78.737 45.5645 78.8874 45.3223 79.0002 44.9919C79.0942 44.6616 79.1506 44.3313 79.1506 43.9569ZM84.6968 43.2742C84.6968 43.4283 84.6591 43.7366 84.5839 44.1771L84.1139 46.7978H83.1739L83.6627 44.089C83.7191 43.7587 83.7379 43.5605 83.7379 43.4944C83.7379 43.3182 83.7003 43.1641 83.6251 43.0539C83.5499 42.9438 83.4183 42.8778 83.2679 42.8778C83.0987 42.8778 82.9295 42.9438 82.7415 43.098C82.5535 43.2522 82.3843 43.4504 82.2339 43.7146C82.0835 43.9789 81.9895 44.2211 81.9519 44.4854L81.5383 46.7757H80.5794L81.181 43.5164C81.275 42.9879 81.3502 42.5254 81.3878 42.107H82.3091C82.2903 42.3713 82.2527 42.7016 82.1963 43.098H82.2151C82.4219 42.7456 82.6663 42.4593 82.9295 42.2832C83.1927 42.085 83.4559 41.9969 83.7191 41.9969C84.0387 41.9969 84.2831 42.107 84.4711 42.3272C84.6216 42.5695 84.6968 42.8778 84.6968 43.2742Z" fill="white"/>
<path fill-rule="evenodd" clip-rule="evenodd" d="M104.757 16.3847L93.4766 0.0219727H103.328L109.288 8.78692L104.757 16.3847Z" fill="white"/>
<path fill-rule="evenodd" clip-rule="evenodd" d="M93.6646 47.9872L105.133 29.158L110.472 37.4825L104.005 47.9872H93.6646Z" fill="white"/>
<path fill-rule="evenodd" clip-rule="evenodd" d="M119.346 22.8594L109.175 23.0135L126.697 47.987H137L119.346 22.8594Z" fill="white"/>
</svg>
