<svg width="59" height="59" viewBox="0 0 59 59" fill="none" xmlns="http://www.w3.org/2000/svg">
<path d="M53.0982 29.9003H29.0963V5.90116C29.0963 5.60587 28.8547 5.36427 28.5593 5.36427H26.8142C23.2924 5.36067 19.8044 6.05245 16.5506 7.3999C13.2967 8.74736 10.341 10.724 7.85298 13.2163C5.40334 15.6581 3.45198 18.5529 2.10755 21.7395C0.711466 25.0481 0 28.5581 0 32.1821C0 35.8061 0.711466 39.3094 2.10755 42.618C3.45665 45.8058 5.38969 48.6782 7.85298 51.1412C10.3163 53.6042 13.1823 55.537 16.3771 56.8859C19.6804 58.2871 23.2328 59.0062 26.8209 59C30.3428 59.0036 33.8307 58.3118 37.0846 56.9643C40.3384 55.6169 43.2942 53.6403 45.7822 51.1479C48.2455 48.6849 50.1785 45.8192 51.5276 42.6247C52.929 39.3219 53.6481 35.7699 53.6419 32.1821V30.4372C53.6352 30.1419 53.3935 29.9003 53.0982 29.9003ZM58.998 26.1756L58.8235 24.2831C58.253 18.1088 55.5145 12.2835 51.098 7.88767C46.6857 3.47953 40.8713 0.751891 34.6605 0.176529L32.761 0.00203837C32.4455 -0.0248063 32.1771 0.216796 32.1771 0.532221V26.283C32.1771 26.5783 32.4187 26.8199 32.714 26.8199L58.4611 26.7528C58.7765 26.7461 59.0249 26.4843 58.998 26.1756Z" fill="#FA5F4B"/>
</svg>
