<svg width="167" height="273" viewBox="0 0 167 273" fill="none" xmlns="http://www.w3.org/2000/svg">
<g filter="url(#filter0_d)">
<path d="M136.5 239C122.514 239 108.665 236.245 95.7442 230.893C82.823 225.541 71.0826 217.696 61.1931 207.807C51.3037 197.917 43.4589 186.177 38.1068 173.256C32.7547 160.335 30 146.486 30 132.5C30 118.514 32.7547 104.665 38.1068 91.7442C43.459 78.823 51.3037 67.0826 61.1931 57.1931C71.0826 47.3037 82.823 39.4589 95.7442 34.1068C108.665 28.7547 122.514 26 136.5 26L136.5 132.5L136.5 239Z" fill="#CCF2DB"/>
</g>
<defs>
<filter id="filter0_d" x="0" y="0" width="166.5" height="273" filterUnits="userSpaceOnUse" color-interpolation-filters="sRGB">
<feFlood flood-opacity="0" result="BackgroundImageFix"/>
<feColorMatrix in="SourceAlpha" type="matrix" values="0 0 0 0 0 0 0 0 0 0 0 0 0 0 0 0 0 0 127 0"/>
<feOffset dy="4"/>
<feGaussianBlur stdDeviation="15"/>
<feColorMatrix type="matrix" values="0 0 0 0 0 0 0 0 0 0 0 0 0 0 0 0 0 0 0.1 0"/>
<feBlend mode="normal" in2="BackgroundImageFix" result="effect1_dropShadow"/>
<feBlend mode="normal" in="SourceGraphic" in2="effect1_dropShadow" result="shape"/>
</filter>
</defs>
</svg>
