<svg width="69" height="48" viewBox="0 0 69 48" fill="none" xmlns="http://www.w3.org/2000/svg">
<path d="M69 31.8C69 33.6 65.55 34.8 61.525 35.4C58.9375 30.3 53.7625 26.4 47.725 23.7C48.3 22.8 48.875 22.2 49.45 21.3H51.75C60.6625 21 69 26.7 69 31.8ZM19.55 21H17.25C8.3375 21 0 26.7 0 31.8C0 33.6 3.45 34.8 7.475 35.4C10.0625 30.3 15.2375 26.4 21.275 23.7L19.55 21ZM34.5 24C40.825 24 46 18.6 46 12C46 5.4 40.825 0 34.5 0C28.175 0 23 5.4 23 12C23 18.6 28.175 24 34.5 24ZM34.5 27C22.7125 27 11.5 34.8 11.5 42C11.5 48 34.5 48 34.5 48C34.5 48 57.5 48 57.5 42C57.5 34.8 46.2875 27 34.5 27ZM50.8875 18H51.75C56.6375 18 60.375 14.1 60.375 9C60.375 3.9 56.6375 0 51.75 0C50.3125 0 49.1625 0.300001 48.0125 0.900001C50.3125 3.9 51.75 7.8 51.75 12C51.75 14.1 51.4625 16.2 50.8875 18ZM17.25 18H18.1125C17.5375 16.2 17.25 14.1 17.25 12C17.25 7.8 18.6875 3.9 20.9875 0.900001C19.8375 0.300001 18.6875 0 17.25 0C12.3625 0 8.625 3.9 8.625 9C8.625 14.1 12.3625 18 17.25 18Z" fill="#7D9652"/>
</svg>
