<svg width="38" height="57" viewBox="0 0 38 57" fill="none" xmlns="http://www.w3.org/2000/svg">
<path d="M22.9331 52.859H15.3998C14.9004 52.859 14.4213 53.0575 14.0681 53.4107C13.7149 53.7638 13.5165 54.2429 13.5165 54.7424C13.5165 55.2419 13.7149 55.7209 14.0681 56.0741C14.4213 56.4273 14.9004 56.6257 15.3998 56.6257H22.9331C23.4326 56.6257 23.9117 56.4273 24.2649 56.0741C24.618 55.7209 24.8165 55.2419 24.8165 54.7424C24.8165 54.2429 24.618 53.7638 24.2649 53.4107C23.9117 53.0575 23.4326 52.859 22.9331 52.859Z" fill="#FAB140"/>
<path d="M24.8167 47.2089H13.5168C13.0173 47.2089 12.5383 47.4074 12.1851 47.7605C11.8319 48.1137 11.6335 48.5928 11.6335 49.0923C11.6335 49.5917 11.8319 50.0708 12.1851 50.424C12.5383 50.7772 13.0173 50.9756 13.5168 50.9756H24.8167C25.3162 50.9756 25.7952 50.7772 26.1484 50.424C26.5016 50.0708 26.7 49.5917 26.7 49.0923C26.7 48.5928 26.5016 48.1137 26.1484 47.7605C25.7952 47.4074 25.3162 47.2089 24.8167 47.2089Z" fill="#FAB140"/>
<path d="M32.5169 5.62034C28.9775 2.07616 24.2362 0.124565 19.1665 0.124565C16.6917 0.118666 14.24 0.601776 11.9524 1.54614C9.66478 2.49051 7.58628 3.87753 5.83628 5.62754C4.08627 7.37754 2.69925 9.45604 1.75488 11.7437C0.810516 14.0313 0.327406 16.4829 0.333305 18.9578C0.333305 24.4453 2.43674 29.5786 6.10098 33.0404L6.61419 33.5218C8.7341 35.504 11.6332 38.2195 11.6332 40.616V43.441C11.6332 43.9405 11.8317 44.4195 12.1849 44.7727C12.538 45.1259 13.0171 45.3243 13.5166 45.3243H16.3416C16.5913 45.3243 16.8308 45.2251 17.0074 45.0485C17.184 44.8719 17.2832 44.6324 17.2832 44.3827V30.5897C17.2833 30.3992 17.2256 30.2133 17.1178 30.0563C17.01 29.8993 16.8571 29.7787 16.6794 29.7104C15.5919 29.2667 14.5587 28.7 13.6001 28.0213C13.3847 27.8837 13.1996 27.7038 13.0559 27.4923C12.9123 27.2809 12.8132 27.0425 12.7647 26.7916C12.7162 26.5406 12.7192 26.2824 12.7737 26.0327C12.8281 25.783 12.9329 25.547 13.0815 25.339C13.2301 25.1311 13.4194 24.9555 13.6381 24.8231C13.8567 24.6907 14.1 24.6042 14.3531 24.5688C14.6062 24.5334 14.8639 24.5499 15.1104 24.6174C15.357 24.6848 15.5872 24.8016 15.7871 24.9609C16.6582 25.5777 18.3355 26.4911 19.1665 26.4911C19.9976 26.4911 21.6749 25.5753 22.5483 24.9609C22.9549 24.7052 23.4439 24.6146 23.9152 24.7076C24.3865 24.8006 24.8044 25.0701 25.0835 25.4611C25.3626 25.8521 25.4817 26.3349 25.4166 26.8108C25.3514 27.2867 25.1068 27.7197 24.7329 28.0213C23.7742 28.6988 22.741 29.2643 21.6537 29.7069C21.4759 29.7752 21.3231 29.8958 21.2153 30.0528C21.1075 30.2097 21.0498 30.3957 21.0499 30.5861V44.3827C21.0499 44.6324 21.1491 44.8719 21.3257 45.0485C21.5023 45.2251 21.7418 45.3243 21.9915 45.3243H24.8165C25.316 45.3243 25.795 45.1259 26.1482 44.7727C26.5014 44.4195 26.6998 43.9405 26.6998 43.441V40.616C26.6998 38.276 29.5672 35.5628 31.6612 33.5806L32.2391 33.0321C36.0081 29.4338 37.9998 24.5619 37.9998 18.9578C38.0122 16.4827 37.5341 14.0296 36.593 11.7404C35.652 9.45115 34.2666 7.37107 32.5169 5.62034Z" fill="#FAB140"/>
</svg>
