<svg width="799" height="1099" viewBox="0 0 799 1099" fill="none" xmlns="http://www.w3.org/2000/svg">
<circle cx="560" cy="202" r="202" fill="#BFC3F0"/>
<path d="M1.76594e-05 212C1.99785e-05 185.473 5.22491 159.206 15.3764 134.698C25.5278 110.19 40.407 87.9218 59.1645 69.1644C77.9219 50.407 100.19 35.5278 124.698 25.3763C149.206 15.2249 175.473 9.99998 202 9.99998L202 212L1.76594e-05 212Z" fill="#CCF2DB"/>
<path d="M571 543C571 516.473 576.225 490.206 586.376 465.698C596.528 441.19 611.407 418.922 630.164 400.164C648.922 381.407 671.19 366.528 695.698 356.376C720.206 346.225 746.473 341 773 341L773 543L571 543Z" fill="#5871E7"/>
<path d="M571 534C597.527 534 623.794 539.225 648.302 549.376C672.81 559.528 695.078 574.407 713.836 593.164C732.593 611.922 747.472 634.19 757.624 658.698C767.775 683.206 773 709.473 773 736H571L571 534Z" fill="#7D9652"/>
<path d="M793.3 719.52C808.751 803.201 790.328 889.593 742.082 959.69C693.836 1029.79 619.721 1077.85 536.04 1093.3C452.358 1108.75 365.967 1090.33 295.869 1042.08C225.772 993.836 177.711 919.721 162.26 836.04L793.3 719.52Z" fill="#CEE0F4"/>
<path d="M362 170C340.989 170 320.183 165.861 300.771 157.821C281.359 149.78 263.72 137.994 248.863 123.137C234.006 108.28 222.22 90.6414 214.179 71.2294C206.139 51.8173 202 31.0115 202 10L362 10V170Z" fill="#FAB140"/>
</svg>
